<?xml version="1.0" encoding="UTF-8"?>
<svg width="54px" height="36px" viewBox="0 0 54 36" version="1.1" xmlns="http://www.w3.org/2000/svg" xmlns:xlink="http://www.w3.org/1999/xlink">
    <!-- Generator: Sketch 48.2 (47327) - http://www.bohemiancoding.com/sketch -->
    <title>Page 1</title>
    <desc>Created with Sketch.</desc>
    <defs></defs>
    <g id="quienSoy" stroke="none" stroke-width="1" fill="none" fill-rule="evenodd" transform="translate(-677.000000, -971.000000)">
        <path d="M698.574054,986.775703 C698.574054,986.775703 699.418551,986.453572 701.107574,985.809312 C702.796589,985.165045 703.641087,983.310635 703.641087,980.246021 C703.641087,977.146592 702.73565,974.830753 700.924741,973.298447 C699.113833,971.76614 696.885058,971 694.238351,971 L677,971 L677,1005.58118 L694.238351,1005.58118 C694.238351,1005.58118 694.786835,1005.54635 695.883831,1005.4767 C696.98082,1005.40705 698.190977,1005.05881 699.514334,1004.43195 C700.837684,1003.8051 702.047841,1002.80389 703.14483,1001.4283 C704.241826,1000.05271 704.790311,998.041589 704.790311,995.394881 C704.790311,995.394881 704.781605,994.942159 704.764194,994.036702 C704.746782,993.131251 704.555244,992.147455 704.189579,991.085289 C703.823913,990.023122 703.214489,989.039327 702.361272,988.133876 C701.508055,987.228425 700.245665,986.775703 698.574054,986.775703 Z M684.626664,977.164016 L694.238351,977.164016 C694.238351,977.164016 694.630126,977.31202 695.413691,977.608033 C696.197256,977.904046 696.589038,978.957493 696.589038,980.768402 C696.589038,982.544481 696.293025,983.67628 695.700999,984.163831 C695.108972,984.651383 694.429889,984.895155 693.663742,984.895155 L684.626664,984.895155 L684.626664,977.164016 Z M693.76821,999.41716 L684.626664,999.41716 L684.626664,990.223373 L694.238351,990.223373 C694.238351,990.223373 694.821665,990.414911 695.988306,990.797988 C697.154947,991.181058 697.738255,992.556636 697.738255,994.924741 C697.738255,996.979422 697.250717,998.241813 696.275607,998.711953 C695.300504,999.182093 694.464718,999.41716 693.76821,999.41716 Z M718.842175,979.828122 C715.673093,979.828122 713.217958,980.515911 711.476701,981.891502 C709.735445,983.267093 708.473054,984.781968 707.689489,986.436161 C706.905925,988.090354 706.444497,989.613928 706.305193,991.006938 C706.165895,992.39994 706.096243,993.096435 706.096243,993.096435 C706.096243,993.096435 706.122367,993.784217 706.174601,995.159808 C706.226842,996.535399 706.627323,998.050274 707.376065,999.704466 C708.1248,1001.35866 709.369786,1002.87353 711.111036,1004.24912 C712.852292,1005.62471 715.429314,1006.3125 718.842175,1006.3125 C718.842175,1006.3125 719.434195,1006.29509 720.618254,1006.26026 C721.802307,1006.22544 723.108226,1005.94684 724.536058,1005.42446 C725.96389,1004.90209 727.261103,1004.00535 728.427744,1002.73424 C729.594386,1001.46312 730.1777,999.5913 730.1777,997.118713 L724.379349,997.118713 C724.379349,997.118713 724.179105,997.73685 723.778617,998.973143 C723.378129,1000.20943 721.802314,1000.82757 719.051125,1000.82757 C719.051125,1000.82757 718.076042,1000.62733 716.125829,1000.22684 C714.175623,999.826351 713.200533,998.024177 713.200533,994.820266 L730.386649,994.820266 C730.386649,994.820266 730.412766,994.036715 730.465007,992.469585 C730.517241,990.902449 730.247352,989.178631 729.655325,987.298077 C729.063299,985.417523 727.957617,983.70241 726.338247,982.152692 C724.718884,980.602974 722.220213,979.828122 718.842175,979.828122 Z M724.065918,990.223373 L713.148299,990.223373 C713.148299,990.223373 713.479135,989.335347 714.140813,987.559261 C714.802485,985.783182 716.421829,984.895155 718.998891,984.895155 C721.541123,984.895155 723.021169,985.783182 723.439068,987.559261 C723.856974,989.335347 724.065918,990.223373 724.065918,990.223373 Z M725.424097,973.037263 L711.737885,973.037263 L711.737885,977.320725 L725.424097,977.320725 L725.424097,973.037263 Z" id="Page-1" fill="#000000"></path>
    </g>
</svg>