<?xml version="1.0" encoding="UTF-8"?>
<svg width="20px" height="11px" viewBox="0 0 20 11" version="1.1" xmlns="http://www.w3.org/2000/svg" xmlns:xlink="http://www.w3.org/1999/xlink">
    <!-- Generator: Sketch 48.2 (47327) - http://www.bohemiancoding.com/sketch -->
    <title>Page 1</title>
    <desc>Created with Sketch.</desc>
    <defs></defs>
    <g id="Desktop-HD" stroke="none" stroke-width="1" fill="none" fill-rule="evenodd" transform="translate(-830.000000, -943.000000)">
        <path d="M848.636364,943.233546 C848.787881,943.077847 848.977271,943 849.204547,943 C849.43182,943 849.62121,943.077847 849.772727,943.233546 C849.924244,943.389245 850,943.57997 850,943.805732 C850,944.031493 849.924244,944.230006 849.772727,944.401274 L840.568183,953.7431 C840.416666,953.914367 840.227273,954 840,954 C839.772727,954 839.583334,953.914367 839.431817,953.7431 L830.227273,944.401274 C830.075757,944.230006 830,944.031493 830,943.805732 C830,943.57997 830.075757,943.389245 830.227273,943.233546 C830.378789,943.077847 830.568181,943 830.795455,943 C831.022728,943 831.21212,943.077847 831.363636,943.233546 L840,951.781316 L848.636364,943.233546 Z" id="Page-1" fill="#4B78FB"></path>
    </g>
</svg>