<?xml version="1.0" encoding="UTF-8"?>
<svg width="37px" height="37px" viewBox="0 0 37 37" version="1.1" xmlns="http://www.w3.org/2000/svg" xmlns:xlink="http://www.w3.org/1999/xlink">
    <!-- Generator: Sketch 48.2 (47327) - http://www.bohemiancoding.com/sketch -->
    <title>Page 1</title>
    <desc>Created with Sketch.</desc>
    <defs></defs>
    <g id="quienSoy" stroke="none" stroke-width="1" fill="none" fill-rule="evenodd" transform="translate(-950.000000, -970.000000)">
        <path d="M980.833333,970 C982.576453,970 984.039994,970.591994 985.224,971.776 C986.408006,972.960006 987,974.423547 987,976.166667 L987,1000.83333 C987,1002.57645 986.408006,1004.03999 985.224,1005.224 C984.039994,1006.40801 982.576453,1007 980.833333,1007 L956.166667,1007 C954.423547,1007 952.960006,1006.40801 951.776,1005.224 C950.591994,1004.03999 950,1002.57645 950,1000.83333 L950,976.166667 C950,974.423547 950.591994,972.960006 951.776,971.776 C952.960006,970.591994 954.423547,970 956.166667,970 L980.833333,970 Z M972.272,983.728 C971.119994,982.575994 969.696008,982 968,982 C966.303992,982 964.880006,982.575994 963.728,983.728 C962.575994,984.880006 962,986.303992 962,988 C962,989.696008 962.575994,991.119994 963.728,992.272 C964.880006,993.424006 966.303992,994 968,994 C969.696008,994 971.119994,993.424006 972.272,992.272 C973.424006,991.119994 974,989.696008 974,988 C974,986.303992 973.424006,984.880006 972.272,983.728 Z M976,978.5 C976,979.233337 976.233331,979.833331 976.7,980.3 C977.166669,980.766669 977.766663,981 978.5,981 C979.200006,981 979.791663,980.741669 980.275,980.225 C980.758338,979.708331 981,979.133338 981,978.5 C981,977.866662 980.741669,977.291669 980.225,976.775 C979.708331,976.258331 979.133338,976 978.5,976 C977.866662,976 977.291669,976.241662 976.775,976.725 C976.258331,977.208337 976,977.799994 976,978.5 Z M979.986301,1002 C980.593611,1002 981.081046,1001.81621 981.44863,1001.44863 C981.816214,1001.08105 982,1000.59361 982,999.986301 L982,988 L977.972603,988 C977.972603,990.812801 977.013711,993.17807 975.09589,995.09589 C973.17807,997.013711 970.812801,997.972603 968,997.972603 C965.187199,997.972603 962.82193,997.013711 960.90411,995.09589 C958.986289,993.17807 958.027397,990.812801 958.027397,988 L954,988 L954,999.986301 C954,1000.59361 954.183788,1001.08105 954.55137,1001.44863 C954.918951,1001.81621 955.40639,1002 956.013699,1002 L979.986301,1002 Z" id="Page-1" fill="#000000"></path>
    </g>
</svg>