<?xml version="1.0" encoding="UTF-8"?>
<svg width="17px" height="21px" viewBox="0 0 17 21" version="1.1" xmlns="http://www.w3.org/2000/svg" xmlns:xlink="http://www.w3.org/1999/xlink">
    <!-- Generator: Sketch 48.2 (47327) - http://www.bohemiancoding.com/sketch -->
    <title>Page 1</title>
    <desc>Created with Sketch.</desc>
    <defs></defs>
    <g id="Desktop-HD" stroke="none" stroke-width="1" fill="none" fill-rule="evenodd" transform="translate(-882.000000, -2564.000000)">
        <path d="M896.063345,2566.10461 C895.926872,2566.10461 895.796084,2566.13304 895.670985,2566.18991 C895.545884,2566.24677 895.437843,2566.33775 895.34686,2566.46285 L893.009757,2569.60174 C892.827791,2569.86331 892.728279,2570.13626 892.711221,2570.42058 C892.694161,2570.7049 892.793673,2570.9551 893.009757,2571.17118 L893.930949,2572.10944 C893.555648,2572.60984 893.143387,2573.13298 892.694161,2573.67888 C892.244935,2574.22477 891.76444,2574.7536 891.252663,2575.26538 C890.740886,2575.77715 890.212058,2576.25765 889.666163,2576.70688 C889.120265,2577.1561 888.597123,2577.56836 888.09672,2577.94366 L887.158466,2577.02247 C887.056111,2576.92012 886.945227,2576.84335 886.825812,2576.79217 C886.706396,2576.74099 886.578454,2576.71541 886.441981,2576.71541 C886.305508,2576.71541 886.163349,2576.74099 886.015501,2576.79217 C885.867656,2576.84335 885.725497,2576.92012 885.589023,2577.02247 L882.450139,2579.35958 C882.188564,2579.54154 882.069151,2579.79458 882.091897,2580.11871 C882.114642,2580.44283 882.234055,2580.71293 882.450139,2580.92902 L884.019581,2582.49846 C884.212919,2582.6918 884.42047,2582.83111 884.64224,2582.91641 C884.86401,2583.00171 885.094307,2583.04435 885.333135,2583.04435 C885.617456,2583.04435 885.913146,2582.99318 886.220211,2582.89082 C886.527278,2582.78847 886.840027,2582.65768 887.158466,2582.49846 C887.158466,2582.49846 887.354644,2582.38189 887.747006,2582.14875 C888.13937,2581.9156 888.645452,2581.5858 889.265272,2581.15932 C889.88509,2580.73283 890.575978,2580.21822 891.337958,2579.61546 C892.099939,2579.0127 892.850533,2578.34172 893.589766,2577.60248 C894.329001,2576.86325 894.999987,2576.11265 895.602749,2575.35067 C896.205508,2574.58869 896.72012,2573.8978 897.146602,2573.27799 C897.573082,2572.65817 897.902888,2572.15209 898.136033,2571.75972 C898.369175,2571.36736 898.485745,2571.17118 898.485745,2571.17118 C898.781438,2570.60254 898.963401,2570.04528 899.031638,2569.49938 C899.099874,2568.95349 898.917913,2568.46446 898.485745,2568.0323 L896.916303,2566.46285 C896.802573,2566.34912 896.671788,2566.26099 896.523941,2566.19844 C896.376096,2566.13589 896.222564,2566.10461 896.063345,2566.10461 Z" id="Page-1" stroke="#FFFFFF" transform="translate(890.567381, 2574.574483) rotate(98.000000) translate(-890.567381, -2574.574483) "></path>
    </g>
</svg>