<?xml version="1.0" encoding="UTF-8"?>
<svg width="47px" height="38px" viewBox="0 0 47 38" version="1.1" xmlns="http://www.w3.org/2000/svg" xmlns:xlink="http://www.w3.org/1999/xlink">
    <!-- Generator: Sketch 48.2 (47327) - http://www.bohemiancoding.com/sketch -->
    <title>Page 1</title>
    <desc>Created with Sketch.</desc>
    <defs></defs>
    <g id="quienSoy" stroke="none" stroke-width="1" fill="none" fill-rule="evenodd" transform="translate(-817.000000, -970.000000)">
        <path d="M839.596382,979.471908 C839.596382,976.830491 840.535308,974.591515 842.413191,972.754901 C844.291074,970.918288 846.550689,970 849.192105,970 C851.998607,970 854.289183,970.96988 856.063882,972.909671 C858.044942,972.496947 860.067248,971.75406 862.130855,970.680987 C861.470499,972.909679 860.087902,974.663723 857.983026,975.943158 C859.757724,975.695526 861.573676,975.179632 863.430921,974.395461 C862.151486,976.335252 860.562535,978.006749 858.664013,979.41 L858.664013,980.58625 C858.664013,985.084911 857.673495,989.294609 855.692434,993.215461 C853.711374,997.218858 850.574733,1000.62376 846.282434,1003.43026 C841.990135,1006.23677 837.099458,1007.64 831.610263,1007.64 C826.244884,1007.64 821.374847,1006.21613 817,1003.36836 C817.660354,1003.4509 818.444513,1003.49217 819.3525,1003.49217 C823.768618,1003.49217 827.689412,1002.15085 831.115,999.468158 C828.968847,999.426889 827.10131,998.76654 825.512336,997.487105 C823.923358,996.20767 822.839981,994.63935 822.262171,992.782105 C822.674892,992.94719 823.252693,993.029737 823.995592,993.029737 C824.738487,993.029737 825.56392,992.92656 826.471908,992.720197 C824.325757,992.266204 822.530446,991.172508 821.085921,989.439079 C819.641396,987.70565 818.919145,985.642074 818.919145,983.248289 C820.116036,983.908646 821.539904,984.300724 823.190789,984.424539 C820.343012,982.443479 818.919145,979.781463 818.919145,976.438421 C818.919145,974.870077 819.352495,973.301765 820.219211,971.733421 C825.419497,978.048057 831.981672,981.329145 839.905921,981.576776 C839.699559,980.875151 839.596382,980.173533 839.596382,979.471908 Z" id="Page-1" fill="#000000"></path>
    </g>
</svg>